<?xml version="1.0" encoding="utf-8"?>
<!-- Generator: Adobe Illustrator 26.0.1, SVG Export Plug-In . SVG Version: 6.00 Build 0)  -->
<svg version="1.1" id="Layer_1" xmlns="http://www.w3.org/2000/svg" xmlns:xlink="http://www.w3.org/1999/xlink" x="0px" y="0px"
	 viewBox="0 0 870.8 792" style="enable-background:new 0 0 870.8 792;" xml:space="preserve">
<style type="text/css">
	.st0{fill:#D7D7D4;}
	.st1{fill:#182A4B;}
	.st2{fill:#E2E2E0;stroke:#182A4B;stroke-width:5;stroke-miterlimit:10;}
	.st3{fill:none;stroke:#2F3F5A;stroke-width:10;stroke-miterlimit:10;}
	.st4{fill:#E2E2E0;}
	.st5{fill:#E2E2E0;stroke:#1F3152;stroke-width:10;stroke-miterlimit:10;}
	.st6{display:none;fill:none;stroke:#2F3F5A;stroke-width:6;stroke-miterlimit:10;}
	.st7{opacity:0.25;}
	.st8{opacity:0.2;}
	.st9{opacity:0.35;fill:url(#SVGID_1_);}
	.st10{opacity:0.3;fill:url(#SVGID_00000067199081858723171610000003680633803976133290_);}
	.st11{opacity:0.3;fill:url(#SVGID_00000074418588293573512380000009745611514342604466_);}
	.st12{fill:#152A4B;}
	.st13{fill:#192D48;}
	.st14{fill:#182B4B;}
	.st15{fill:#1E2B43;}
	.st16{opacity:0.58;}
	.st17{opacity:0.5;}
	.st18{opacity:0.6;}
	.st19{opacity:0.48;}
	.st20{opacity:0.59;}
	.st21{opacity:0.35;fill:url(#SVGID_00000158020884721160317860000017628745045647941533_);}
	.st22{opacity:0.35;fill:url(#SVGID_00000119821033481163176240000006532700341025553334_);}
	.st23{opacity:0.32;fill:url(#SVGID_00000142873704987441595100000005327501880858895799_);}
</style>
<path class="st0" d="M542.4,692.9c0,0,37,5.1,37.2,5.1c17.6,2.4,37.8,0,55.8,0c10.7,0,21.4,0,32.1,0h87.1h12.6
	c0,0,2.2,16.7-21.6,19.3s-45.3,0-45.4,0c-17.4-2.1-38.3,0.9-55.7,2c-31.6,1.9-62.6,6-93.9,10.2H538L542.4,692.9z"/>
<path class="st1" d="M550.2,689.9l-3.5,32.6h11.8l28.5-3.6l40.1-4.7l51.3-3c12.9-0.7,25.8,0.3,38.7,0.4c8.9,0.1,29.8,1.4,36.3-5.3
	c0.7-0.7,0.9-1.7,1.2-2.6c0.9-3.6,1.9-7.2,2.8-10.8c3.7,0,7.3,0,11.1,0c-3.1,11.6-5.2,22.7-19.4,28c-8.9,3.3-18.4,1.6-27.7,1.4
	c-11.1-0.2-22.5,0.4-33.6,0.8c-50.1,2-99.9,11.2-150.3,9.7c-0.7,0-1.4-0.1-1.9-0.6c-0.3-0.4-0.2-1-0.1-1.5c1.2-4.4,4.4-8,5.9-12.3
	c1.1-3,0.6-7.2,0.8-10.3c0.6-7.7,1.2-15.3,1.9-23L550.2,689.9z"/>
<path class="st2" d="M293.4,350.7c3.6,8.1,19.9-20.4,21.9-24c7.5-13.4,13.8-27.3,21.2-40.7c11.1-20.1,33.3-58.2,60.8-56.7
	c40.5,2.2,8.1,69.8,0.3,86.6c-14.6,31.1-23.8,64.5-38.4,95.6c-12.9,27.5-31.7,52.1-48.3,77.3l-33.4,55.1c-0.5,0.9-1.5,1.4-2.6,1.4
	L72,538.9c-1.4,0-2.5-1-2.8-2.4C48.5,425.7,35.1,316.4,27.6,203.7c-0.9-13.1-1.7-26.5,2.5-38.9c3.7-11.1,14.2-24.8,27.5-22.2
	c20.9,4,19.4,39.3,21.2,54.9c1.8,15.5,3.3,31.1,5.1,46.6c0.9,8.1-1.5,17.9,3.7,25c0.6,0.9,0.6,1.6,1.7,1.6c3.5,0.1,4.2-7.3,4.6-9.6
	c0.8-6,1-12.2,1-18.3c-0.2-12.2-1.6-24.3-2.2-36.5c-1.4-24.9-4.7-50.3-3.5-75.2c0.5-11.1,1.9-22.8,8.5-31.8
	c16.1-22.3,40.4-7.6,46.7,13c5.9,19.3,4.7,39.9,6.1,59.8c2.3,32.8,0.7,66.6,4.8,99.2c0.3,2.1,0.6,3.9,3.3,4.5c4.7,1,6.6-3.1,6.6-6.3
	c-0.1-5.9-0.2-11.8-0.4-17.7c-0.5-17.8-1-35.5-1.6-53.3c-0.4-11.4-0.8-22.7-1.1-34.1c-0.6-20.9-2.3-42.1-1.7-62.9
	c0.8-27.7,35.1-44.5,52.5-18.9c14.5,21.3,8.4,51.8,8.8,75.9c0.5,29.7,0.7,59.4,0.5,89.1c0,4.1,1.3,26.2,3.2,24.7
	c3.2-2.4,5.3-37.3,5.7-41c3.3-37.1-1-75.8-3-113c-1.1-20.5,13-35.7,33.7-27.8c23.2,8.9,27.7,38.2,29.9,59.8
	c3.6,34.4,4.1,69.1,2.6,103.7c-1.4,31.4-3.9,62.4-1.3,93.8C292.8,349,293,350,293.4,350.7z"/>
<path class="st0" d="M272.5,674.9c-0.3,0.1-1,0.2-1.9,0.5l0,0c-7.2,1.8-30.4,7.6-30.5,7.6c-15.5,3.9-33.2,0-48.9,0
	c-9.4,0-18.7,0-28.1,0H86.7h-2.8h-8.3c0,0-2,26.4,18.9,30.5s39.8,0,39.8,0c15.3-3.3,33.5,1.5,48.9,3.1c23.4,2.5,46.4,7.5,69.5,13.1
	l23.8,0.3l-1-15.2l0,0L272.5,674.9z"/>
<path class="st1" d="M73.7,681.2c0.2,1,0.3,1.9,0.5,2.9c0.2,1.5,0.5,2.9,0.8,4.3l0,0c0.6,3,1.3,5.9,2.1,8.7v0.1
	c2.4,7.7,6,14.1,12.7,18.2c7.9,4.8,16.3,2.4,24.6,2.1c9.9-0.3,20,0.5,29.9,1.2c35.9,2.4,71.7,11.7,107.7,13.9l23.9,0.3
	c0.6,0,1.3,0,1.9-0.1c0.6,0,1.3-0.1,1.6-0.9c0.3-0.6,0.2-1.5,0.1-2.1c-1-5.7-3.2-10.5-4.7-15.8c-0.2-0.6-0.3-1.3-0.5-1.9
	c0-0.1-0.1-0.3-0.1-0.4c-0.7-3.1-0.7-7.2-0.7-10.9c0-1.5,0-2.9-0.1-4.2c-0.5-10.5-1-21-1.6-31.3c0-0.2,0-0.4,0-0.7
	c0-0.5,0-1.2-0.1-1.7l-1.8,2.2l-3.7,4.7l0.1,2.4l1,16.3l1.9,29.3h-10.4l-25.2-5.2l-35.7-7l-45.5-4.4c-11.4-1.1-22.9,0.4-34.3,0.5
	c-7.9,0.1-26.5,2.1-32.2-7.8c-0.6-1.1-0.9-2.5-1.1-3.9c-0.1-0.5-0.2-1.1-0.2-1.6c-0.5-3-0.9-6.1-1.4-9.1c-0.3-1.6-0.5-3.3-0.8-4.9
	c0-0.1,0-0.2-0.1-0.4c-2.6,0-3.3,0-5.9,0L73.7,681.2z"/>
<path class="st3" d="M50.1,354.9c5-18.5,9.1-39.2,29.3-44.3c15-3.7,42.2,0.6,35.7,23.3c-6.4,22.3-15.1,37.8-2.3,59.5
	c5.2,8.8,11.7,16.8,15.4,26.3c5.3,13.6,8.2,34.8,2.4,48.6c-5.7,13.5-20.1,20.1-33.3,20.4c-8.9,0.2-31.4-5.4-34.2-17.1
	c-5.3-22.6-12.9-45.9-14.5-69.2C47.6,389,46.4,368.2,50.1,354.9C50,355,50.1,354.9,50.1,354.9z"/>
<g>
	<g>
		<path class="st4" d="M763.6,559.7l13.9-55.4l8.8-33.4l10.7-49.5l9.5-50.1l3.2-42.4c0,0,3.8-77.2,3.8-77.8
			c0.1-27.9-22.4-63.9-53.6-56.6c1.7-0.4-7.5-22.7-8.6-24.3c-12.6-18.2-36-21.3-56.4-20.1c-1,0.1-10.8-18.3-12.9-20.2
			c-6.5-5.7-27-11.7-35.6-8l-15.1,6.4l-7.6,18.6l-6.3,46.3l-5,42.4l-3.2-42.4c0,0,8.1-41.9,8.2-42.4c5.3-27.4-39-32.9-54.2-17.4
			l-14.5,14.8l-9.5,21.9l-3.8,78.4v75.9l-5,16.5c1.9-6.2-5.2-21.9-6.5-28.1c-5-22.9-12.7-41.1-23.7-61.6c0,0-35.2-28.3-31.8,54
			l-0.2,41.8c3.8,26.6,6.3,54,13.8,79.8c14.2,48.3,43.5,93.8,65.8,138.8L763.6,559.7z"/>
		<path class="st4" d="M473.1,382.4c-3.2-28.7-4.7-56-4.7-84.8c0-19.1-0.1-38.8,9.1-55.6c0.7-1.2,1.4-2.4,2.3-3.4
			c7-7.1,14.5-4.3,20.2,3.4c10.2,13.7,15.1,31.2,19.1,48.1c3.7,15.7,10.9,34.4,10.9,50.7v30.1L473.1,382.4z"/>
	</g>
	<path class="st4" d="M94.4,271.8l1.8-20.4c-1.7-30.9-5.4-61.8-5.8-92.8c-0.3-20.5-3.1-59,20.3-67.6c6.8-2.5,14.7-0.4,20.4,4.3
		c14.3,11.8,15.4,33.9,16.3,51.5c2,40.2,3.9,84.4,5.2,124.6l-0.1-3.8c0.8,5.1,2.1,8-3.1,7.5L94.4,271.8z"/>
	<path class="st4" d="M316.1,327.9c7.1-12.3,13.1-25.4,19.5-38.1c10-19.8,21.8-39.4,39.7-52.5c5.2-3.8,11-7,17.3-7.8
		c26.6-3.5,25.8,29.5,21.4,46.9c-3.5,13.8-10,26.7-16,39.6c-13.9,30-25.2,61-36.2,92.1c-0.8,2.3-3.8,2.9-5.5,1.1
		c-17.8-19.2-35.9-37.8-52.7-58.1c-1-1.2-1-2.9-0.1-4.1C308,341.2,312.6,334,316.1,327.9z"/>
	<path class="st4" d="M293.9,214.5c0,0-0.9-34.7-5.6-74.2s-25.7-49.9-25.7-49.9l0,0c-4-3.6-13.1-2.2-17.9-0.1
		c-0.2,0.1-0.4,0.1-0.5,0.2c-9.2,4.1-10.4,9.2-13,18.2c-0.8,2.8-1,10.6-0.6,13.5c0.2,1.8,0.4,3.6,0.6,5.3
		c-0.2,11.9,1.1,24.2,2.2,36.2c0.5,20.7,0.1,41.7-0.4,62.3c-0.5,15-3.8,29.7-4.4,44.6c0,1.2,0.8,2.1,2,2.2l61,4.8l1.9-32.7l-1-4.3
		L293.9,214.5z"/>
	<path class="st4" d="M220.2,248.3l0.5-1.3l0,0v-7.3v-34v-4.4l-0.7-56c0,0,1.4,1.8,1.2-30.5c-0.2-32.3-20.6-41.3-20.6-41.3l-0.3,0.5
		c-14-10.1-30.7,0-35.7,16.9c-2.5,8.5-3.2,17.5-3,26.4c-0.2,13.2,1.6,26.7,1.9,39.6c0.7,33.1,2.2,66.2,2.3,99.3
		c0,4.8-0.1,9.8-0.2,14.6c0,0,0.1-14.6,0.2-14.6c0,1.5-0.1,17.5-0.2,18.9l4.1,2.6l-4-2.6h54.5v-0.4l0,0l3.2-2.4L220.2,248.3z"/>
	<g>
		<path class="st4" d="M84.4,271.6l1.7-0.4c0,0-0.6,0.1-1.7,0.2L84.4,271.6z"/>
		<path class="st4" d="M86.6,270.9L85,258.4l-0.6-0.1c-0.6-5.2-6.3-59.3-6.3-59.3c-0.7-8.9-0.2-17.8-1.5-26.7
			c-1.6-11.1-5.2-25.1-17.8-28.2c-8.5-2.1-18.1,2.3-22.1,10c-9.2,17.8-8,38.9-7,58.3c0.3,5.6,5,62.6,5.4,62.6
			c11.2-0.8,31.9-2.4,43.2-3.3c2.6-0.2,4.8-0.4,6.1-0.5l0-0.3L86.6,270.9z"/>
	</g>
</g>
<path class="st1" d="M545.4,554.8C545.4,554.8,545.4,554.8,545.4,554.8c0.4,1,1.4,1.6,2.4,1.6h22.8h91.1c17.2,0,34.4,0,51.6,0
	c12.4,0,25,0,37.4,0c6.7,0,21.1-2.8,25.9,3.3c6,7.5-2.8,25.8-3.3,34.6c0,0-3.2,57.9-3.3,59.1c-1.1,20,6.5,45-16.7,55.1
	c-0.3,0.1-0.7,0.2-1,0.2H649.7c-33.2-1.1-75.3,4.3-104.9-12.7c-0.8-0.4-1.3-1.3-1.3-2.2c-0.2-16-0.1-32-0.1-48
	c0-23.5,3.2-48.8-4.7-70.9c-2.4-6.6-1.5-14.2,2.1-20.3C541.9,552.8,544.5,552.9,545.4,554.8z"/>
<g>
	<path class="st1" d="M74.7,684.6L74.7,684.6l0.8-6.6l0.2-1.3L68,536.5l89.6,2.8l118.9,3.7l-4.6,126.7l0,0l-0.3,7v0.4l-0.3,7.3
		l0.9,1.1l0.1,0.1l0.3,5.4l0,0l-1.2,0.1l-4,0.2H267l-94.8,5.8H100l-14.4-5.8l0,0l-1.2-0.5l-8.9-3.6l-0.4-0.2l0,0L74.7,684.6z"/>
	<path class="st1" d="M246.4,554.1l42.4-74c15.3-26.7,34.8-52.4,49-80.5c10.8-21.3,21-43,31.5-64.6c13-28.7,21.6-72.6,43.1-96.5
		c18.2,29.1-13.3,81.4-22.3,103.1c-18.5,45.2-29.5,77.8-55.6,123.1c-21.2,33.5-43.6,62.9-65.2,96.3L246.4,554.1z"/>
</g>
<path class="st5" d="M223.3,554.1v115c-10,0-103.1,7.9-103.1-7.2v-14.4c1.2-14.8,2.3-29.7,3.5-44.5c0.8-10.6-1.2-26.7,2.3-36.7
	C130.9,551.9,207.6,555.2,223.3,554.1z"/>
<path class="st6" d="M484.8,238.5c5.6,18.4,11.3,36.9,16.9,55.4c4.5,14.9,11.2,28.4,15,43.7c4.8,19.8-1.6,28.8-7.1,47.1
	c-8,26.7,6.3,88.1,6.3,88.1l13.1,55.5l10.9,32.7h83l145.5-4.9l29.1-124.9"/>
<g class="st7">
	<g>
		<image style="overflow:visible;" width="116" height="116" xlink:href="DCD651F0.png"  transform="matrix(1 0 0 1 507 154)">
		</image>
	</g>
	<g>
		<image style="overflow:visible;" width="122" height="123" xlink:href="DCD651F1.png"  transform="matrix(1 0 0 1 594 151)">
		</image>
	</g>
	<g>
		<image style="overflow:visible;" width="105" height="105" xlink:href="DCD651F7.png"  transform="matrix(1 0 0 1 736 226)">
		</image>
	</g>
	<g>
		<image style="overflow:visible;" width="105" height="105" xlink:href="DCD651F2.png"  transform="matrix(1 0 0 1 676 167)">
		</image>
	</g>
</g>
<g class="st8">
	<linearGradient id="SVGID_1_" gradientUnits="userSpaceOnUse" x1="122.5377" y1="239.9993" x2="122.8609" y2="233.8309">
		<stop  offset="0.2964" style="stop-color:#E1DEDD"/>
		<stop  offset="0.6856" style="stop-color:#FFFFFF"/>
	</linearGradient>
	<rect x="95.7" y="235.2" class="st9" width="54" height="3.4"/>
	
		<linearGradient id="SVGID_00000174579827807347119350000014990439909387515326_" gradientUnits="userSpaceOnUse" x1="187.8619" y1="166.7043" x2="188.2978" y2="158.3882">
		<stop  offset="0.2964" style="stop-color:#E1DEDD"/>
		<stop  offset="0.6856" style="stop-color:#FFFFFF"/>
	</linearGradient>
	
		<rect x="161.1" y="159.8" style="opacity:0.3;fill:url(#SVGID_00000174579827807347119350000014990439909387515326_);" width="54" height="5.5"/>
	
		<linearGradient id="SVGID_00000099630106948874958160000013922011901125375412_" gradientUnits="userSpaceOnUse" x1="55.4838" y1="230.9462" x2="55.9197" y2="222.6301">
		<stop  offset="0.2964" style="stop-color:#E1DEDD"/>
		<stop  offset="0.6856" style="stop-color:#FFFFFF"/>
	</linearGradient>
	
		<rect x="28.7" y="224" style="opacity:0.3;fill:url(#SVGID_00000099630106948874958160000013922011901125375412_);" width="54" height="5.5"/>
</g>
<g>
	<path class="st4" d="M541.7,556.9l-0.5-0.9l-1.9,0C538.9,556,541.9,557.3,541.7,556.9z"/>
	<polygon class="st4" points="539.9,279.9 534.3,323.2 532.1,375.1 518.2,374.1 473.4,387.8 479.3,419.2 489.8,451.6 504.4,484 
		513.8,501.7 539.4,556 541.1,555.8 541.2,555.9 772.7,555.1 799.6,445.1 801.7,442.5 812.3,379.6 817.4,308.6 	"/>
</g>
<path class="st12" d="M526.1,527.6c-0.6,3.8,1.1,8.7,4.2,13.4c-2-2.9,19.7,2.4,20.9,2.8c7,2.4,14,4.6,21.1,6.7
	c10.2,3,20.6,5.7,30.9,8.3h35l83.7-48.9c16.7-9.8,54.8-26.7,63.3-44.5l11.2-23.6V438h-4.6h-5.3l-5.3,8.3
	c-48.5,37.1-99,68.3-152.2,98.5l-4.6,5.1C612.3,546.9,528.6,512,526.1,527.6z"/>
<path class="st13" d="M535.7,334.5c-5.3,15.2-1.2,47.2,1.2,63.1c3.3,21.2,15.3,40.3,23.6,59.9c6.9,16.3,13.9,32.7,20.9,49l22.2,41.9
	c-10.7-2.9-21.4-3.1-25.7-14.3c-9-23.3-18-46.5-27-69.8c-6.9-17.9-20.9-40.5-20.9-59.9C525.1,381.1,525.5,356.1,535.7,334.5z"/>
<path class="st14" d="M480.1,240.5l0,1c0,0,0,0,0,0l11.3,45.8c0.2,0.9,0.4,1.9,0.7,2.8l13.1,40.5c0,0,10,29.1,10,29.1c0,0,0,0,0,0
	c-7.3,38.6-12.9,65.1-9.1,104.8c3,31.9,9.9,47.8,23.2,77.8l7.5,16.7c2.9,1.6-0.7-1.2-2.4-5.2l3.2,2.9c-8.8-22.6-18-50.1-23.7-73.9
	c-7-29.6-1.4-50.9,3.1-80.9c0,0,0,0,0,0l8.8-32.7c-0.1-2.8-0.1-5.5-0.2-8.4l-29.4-94.3c-0.2-1.2-0.4-2.4-0.7-3.6l-0.7-6.7
	c-3.5-4.8-6.1-14.4-9.6-19.2v0C482.6,236.4,480.1,238.1,480.1,240.5z"/>
<path class="st15" d="M799.5,437.8c9.9-39.5,14.5-80.3,16.5-121.1c1-18.9,0.8-37.9,2-56.8c0.8-13.9,1.8-31.1-9.3-41.1
	c-12.3-11.1-31.5-9.6-42.7-22.3c-6.5-7.4-7.7-18.5-13.9-25.7c-5.6-6.5-16.7-8.1-24.5-9.2c-6.9-0.9-15.4,0.7-21-4.4
	c-7.6-7.1-14.7-13-20.9-23.4c-1.2,2.7-0.9,1.5-3.7,1.2c-2.8-0.4-5.3-1.9-7.9-3c-14-6-31.5-1.7-41.5,10.1c0.9-5.7,1.5-9.2,2.4-14.8
	c-6.9,2.4-9.3,8.8-10.9,16.2c-6.2,30.1-11.4,59.5-10.5,90.3c-3.2-30-1.3-57,4.8-86.4c1.1-3.7,2.2-8.4-0.5-11.1
	c-2.6-2.6-6.7-1.5-10.3-1.1c-16.1,2.3-33.3-9.3-48-2.2c-10.7,5.1-15.4,18.1-18,30c-13.5,61.5-3.7,126.7-11.6,189.3
	c4.6-2.9,5.7-9.2,6.4-14.2c7.6-54.1,1.7-109.6,9.8-163.7c1.4-9.2,3.5-18.9,10.2-25c6.1-5.6,14.7-6.9,22.8-7.3
	c5.9-0.3,12.4,0,16.7,4.2c4.7,4.6,5,12.2,4.6,19c-1.8,30-9.5,60.8-1.5,89.7c4.5,16,20.1-6.7,22-13.5c6-21.7,3.7-45,7.1-67.3
	c1.3-8.6,3.8-17.7,10.2-23.5c6.5-5.9,15.6-7.1,24.2-7.4c4.9-0.2,10.1-0.1,14.5,2.3c5.7,3.1,9.2,9.5,10.3,16c1.2,6.6,0.4,13.3-0.3,20
	c-2.1,18-4.1,36.1-6.2,54.1c-0.9,7.9-2.1,20.7,5.2,26.2c9.3,7,13.4-11.8,14.1-17.4c1.5-11.2,2.6-22.5,3.2-33.9
	c0.6-9.4-1.5-22.1,1.1-31.1c2.7-9.2,24.3-3.8,30.7-2c22.7,6.5,22.7,30.5,19.2,50.3c-2.9,16.2-6.7,32.7-4.4,49.2
	c1.2,8.5,12.3,22.4,18.1,8.1c3.4-8.4,3.4-20.5,4.6-29.5c1.6-11.6,2.9-23.2,4.1-35c10.2,3.5,24,6.8,30.4,16.7
	c7.5,11.7,5.7,28.8,4.7,42.1c-3.8,51.7-9.3,102.7-16.9,154c-0.7,4.5-5.8,8.7-2.4,11.6C793.3,442.3,798.7,440.7,799.5,437.8z"/>
<g>
	<g>
		<g class="st16">
			<g class="st17">
				<image style="overflow:visible;" width="98" height="195" xlink:href="DCD651F3.png"  transform="matrix(1 0 0 1 464 212)">
				</image>
			</g>
			<g class="st18">
				<image style="overflow:visible;" width="106" height="190" xlink:href="DCD651FE.png"  transform="matrix(1 0 0 1 464 224)">
				</image>
			</g>
		</g>
		<g class="st19">
			<image style="overflow:visible;" width="82" height="155" xlink:href="DCD651FF.png"  transform="matrix(1 0 0 1 650 132)">
			</image>
		</g>
		<g class="st20">
			<image style="overflow:visible;" width="79" height="135" xlink:href="DCD651F4.png"  transform="matrix(1 0 0 1 721 180)">
			</image>
		</g>
		<g class="st17">
			<image style="overflow:visible;" width="84" height="105" xlink:href="DCD651F5.png"  transform="matrix(1 0 0 1 569 180)">
			</image>
		</g>
	</g>
	<g>
		
			<linearGradient id="SVGID_00000049224137768663973320000000516889667944312232_" gradientUnits="userSpaceOnUse" x1="190.316" y1="166.7043" x2="190.7518" y2="158.3882">
			<stop  offset="0.2964" style="stop-color:#E1DEDD"/>
			<stop  offset="0.6856" style="stop-color:#FFFFFF"/>
		</linearGradient>
		
			<rect x="163.5" y="159.8" style="opacity:0.35;fill:url(#SVGID_00000049224137768663973320000000516889667944312232_);" width="54" height="5.5"/>
		
			<linearGradient id="SVGID_00000054245715622058442590000018293437771242192040_" gradientUnits="userSpaceOnUse" x1="57.9379" y1="233.4003" x2="58.3737" y2="225.0842">
			<stop  offset="0.2964" style="stop-color:#E1DEDD"/>
			<stop  offset="0.6856" style="stop-color:#FFFFFF"/>
		</linearGradient>
		
			<rect x="31.2" y="226.5" style="opacity:0.35;fill:url(#SVGID_00000054245715622058442590000018293437771242192040_);" width="54" height="5.5"/>
		
			<linearGradient id="SVGID_00000123426628486064897580000012922394457162407558_" gradientUnits="userSpaceOnUse" x1="119.6413" y1="239.3798" x2="120.8492" y2="229.5423">
			<stop  offset="0.2964" style="stop-color:#E1DEDD"/>
			<stop  offset="0.6856" style="stop-color:#FFFFFF"/>
		</linearGradient>
		
			<rect x="93.2" y="232.8" style="opacity:0.32;fill:url(#SVGID_00000123426628486064897580000012922394457162407558_);" width="54" height="3.4"/>
		<g class="st20">
			<image style="overflow:visible;" width="82" height="255" xlink:href="EAF9D80F.png"  transform="matrix(1 0 0 1 247 132)">
			</image>
		</g>
		<g>
			<g class="st20">
				<image style="overflow:visible;" width="104" height="115" xlink:href="EAF9D80D.png"  transform="matrix(1 0 0 1 248 281)">
				</image>
			</g>
		</g>
	</g>
</g>
</svg>
